<svg width="130" height="124" viewBox="0 0 130 124" fill="none" xmlns="http://www.w3.org/2000/svg">
<mask id="mask0_212_96" style="mask-type:luminance" maskUnits="userSpaceOnUse" x="0" y="0" width="130" height="124">
<path d="M129.025 46.0055L40.3616 123.792L4.65964e-06 77.7867L88.6634 0.000121376L129.025 46.0055Z" fill="white"/>
</mask>
<g mask="url(#mask0_212_96)">
<path d="M9.81893 78.5082C22.941 91.7474 39.2401 92.943 50.2077 89.7877C56.9286 87.8533 62.6013 84.2086 66.8745 79.1161C68.9884 76.6012 70.9278 73.7157 72.0807 70.3589C73.1454 67.2616 73.4107 63.4085 71.5364 59.178C67.8023 50.75 57.7752 46.7728 51.9057 47.7554C48.9846 48.246 46.6115 50.0319 45.7877 52.9293C44.9638 55.8266 45.9599 59.6206 48.4332 63.2003C53.4207 70.4149 61.5099 74.76 68.2239 76.6458C75.8771 78.8006 82.7721 78.1935 88.558 75.9295C95.3531 73.2698 100.692 68.4836 105.53 63.3967C110.625 58.0385 115.081 52.034 119.456 45.953C120.538 44.4459 121.61 42.936 122.686 41.4225C122.993 40.9944 123.607 40.7054 124.285 40.8968C124.832 41.0542 125.22 41.5452 124.938 41.9519C120.3 48.6166 115.616 55.2534 110.333 61.2888C105.284 67.0508 99.7141 72.5064 92.7555 76.0268C86.6007 79.1382 79.2411 80.631 70.7901 79.0965C63.5722 77.7895 54.8929 74.0644 48.4831 66.9137C45.5947 63.6868 43.3349 59.8515 43.0331 56.2681C42.6786 52.1503 44.6886 49.2142 47.4034 47.5725C52.5478 44.4709 61.8553 45.493 69.1755 52.0044C72.9437 55.3588 75.048 60.0478 75.3932 64.0486C75.7635 68.3234 74.3233 71.7045 72.6498 74.6641C68.9972 81.1021 63.5821 86.0464 56.9338 89.1353C50.7068 92.0253 43.3664 93.5809 35.216 92.7163C28.1793 91.9676 20.2982 89.4549 13.0308 84.0016C11.2678 82.6792 9.58542 81.1951 7.99398 79.5856C7.0583 78.6418 9.05187 77.7239 9.84397 78.5204L9.81893 78.5082Z" fill="#242424"/>
<path d="M5.36225 75.1541L10.0381 83.2568L12.2895 87.1563L13.5017 89.2579C13.7561 89.6951 14.0548 90.4691 14.477 90.7704C14.9581 91.1225 14.6387 91.6418 14.4821 91.7905C14.1462 92.1194 13.6088 92.2266 13.0339 92.1275C12.459 92.0285 12.1016 91.6703 11.7546 91.0866C11.3119 90.3366 10.8869 89.5822 10.4539 88.835L8.02945 84.6319L3.00909 75.932C2.36999 74.8191 4.73761 74.074 5.36225 75.1541Z" fill="#242424"/>
<path d="M6.72302 74.8486C11.0504 76.4601 15.3413 77.8417 19.6505 79.3097C20.2122 79.5 20.5532 79.9296 20.3051 80.3749C20.0571 80.8202 19.3412 81.0839 18.7026 80.9041C14.2351 79.6319 9.68529 77.9879 5.172 76.3119C4.46005 76.0484 4.70891 75.3178 4.93847 75.105C5.33923 74.7192 6.00701 74.5888 6.72461 74.8586L6.72302 74.8486Z" fill="#242424"/>
</g>
</svg>
