<svg width="142" height="121" viewBox="0 0 142 121" fill="none" xmlns="http://www.w3.org/2000/svg">
<mask id="mask0_190_145" style="mask-type:luminance" maskUnits="userSpaceOnUse" x="-1" y="0" width="143" height="121">
<path d="M141.335 33.8244L25.1586 0L-0.000103295 86.412L116.176 120.236L141.335 33.8244Z" fill="white"/>
</mask>
<g mask="url(#mask0_190_145)">
<path d="M53.8972 8.81206C44.5125 11.0869 35.7602 16.1101 29.0206 23.1916C25.6472 26.7313 21.9468 31.1221 21.5001 36.2177C21.0947 40.8723 24.0611 44.4943 27.683 46.8431C31.9841 49.6323 37.1992 50.9403 42.1527 51.978C47.9576 53.1908 53.869 53.8199 59.728 54.7653C62.5327 55.2179 65.3856 55.6683 68.1036 56.5001C70.2934 57.162 72.4018 58.2935 73.2629 60.5827C74.8289 64.7192 71.5438 69.2876 68.7614 72.0206C64.8439 75.8791 60.1223 78.7755 55.2911 81.2597C50.4598 83.744 45.5451 85.7267 40.4252 87.2452C30.6248 90.1594 18.4508 92.3907 9.43043 86.3184C7.54413 85.0493 5.7477 83.1997 5.43032 80.8099C5.11295 78.4202 6.16794 76.3734 7.69123 74.7299C11.1219 71.0209 16.3424 69.4831 21.0808 68.5411C26.3126 67.5082 31.6645 67.3677 36.9626 67.5755C42.2606 67.7833 47.469 68.3532 52.6519 69.2555C73.638 72.9146 93.507 82.1777 109.97 95.7718C112.024 97.4701 114.028 99.2343 115.984 101.05C116.508 101.534 117.48 101.566 118.13 101.375C118.607 101.231 119.248 100.795 118.724 100.286C110.763 92.6134 101.677 86.1418 91.9759 80.9392C82.2749 75.7366 71.7154 71.7158 60.912 69.1852C50.1085 66.6546 38.9272 65.3405 27.8552 66.0159C22.3265 66.3557 16.8073 67.3697 11.631 69.4623C7.568 71.1025 2.60463 74.5028 2.21363 79.38C1.77991 84.73 7.33185 87.9805 11.4955 89.6376C16.7401 91.7146 22.5494 92.0147 28.1229 91.4938C39.1861 90.468 50.2786 86.5144 60.0202 81.0835C64.7359 78.4523 69.4469 75.3749 73.0297 71.2248C75.6787 68.1618 78.129 63.3341 75.9379 59.3877C74.6955 57.1574 72.3222 55.9569 70.0047 55.2174C67.2515 54.343 64.3447 53.8607 61.5005 53.3805C55.4708 52.3691 49.3647 51.7562 43.3717 50.5371C38.3876 49.5229 32.907 48.2022 28.8048 45.0018C27.1146 43.6846 25.6737 42.0274 24.9472 39.9554C24.0593 37.432 24.5206 34.6784 25.6025 32.2674C27.7395 27.5103 31.7155 23.4504 35.6269 20.1564C39.5383 16.8623 43.8027 14.2858 48.423 12.363C50.6749 11.425 53.0008 10.6947 55.3607 10.1199C55.8555 9.99699 56.3431 9.57272 55.9206 9.09378C55.4981 8.61484 54.4729 8.65611 53.9037 8.78969L53.8972 8.81206Z" fill="#0E0E0E"/>
<path d="M98.6036 95.1481C105.267 97.978 111.938 100.81 118.803 103.14C119.366 103.328 122.127 103.17 121.1 102.021C118.373 98.9625 115.787 95.7747 113.365 92.4569C110.943 89.139 108.865 85.6217 106.54 82.2431C106.007 81.465 102.964 81.5014 103.518 82.6172C105.379 86.3381 107.9 89.806 110.348 93.1398C112.797 96.4736 115.443 99.7274 118.212 102.831L120.509 101.712C113.866 99.4624 107.399 96.7462 100.945 94.0099C100.247 93.7175 99.3344 93.5894 98.6287 93.9744C98.0934 94.2635 97.9321 94.8717 98.5941 95.1534L98.6036 95.1481Z" fill="#0E0E0E"/>
</g>
</svg>
