<svg width="119" height="70" viewBox="0 0 119 70" fill="none" xmlns="http://www.w3.org/2000/svg">
<path d="M31.5 3.23607L37.3966 21.384C37.6644 22.208 38.4323 22.766 39.2987 22.766H58.3806L42.943 33.982C42.2421 34.4913 41.9488 35.394 42.2165 36.2181L48.1131 54.366L32.6756 43.15C31.9746 42.6407 31.0254 42.6407 30.3244 43.15L14.8869 54.366L20.7835 36.2181C21.0512 35.394 20.7579 34.4913 20.057 33.982L4.6194 22.766L23.7013 22.766C24.5677 22.766 25.3356 22.208 25.6034 21.384L31.5 3.23607Z" stroke="#0E0E0E" stroke-width="2"/>
<path d="M94.5 24.2361L98.825 37.5471C99.0928 38.3712 99.8607 38.9291 100.727 38.9291L114.723 38.9291L103.4 47.1558C102.699 47.6651 102.406 48.5678 102.674 49.3918L106.999 62.7029L95.6756 54.4762C94.9746 53.9669 94.0254 53.9669 93.3244 54.4762L82.0014 62.7029L86.3264 49.3918C86.5941 48.5678 86.3008 47.6651 85.5999 47.1558L74.2768 38.9291L88.2729 38.9291C89.1393 38.9291 89.9072 38.3712 90.175 37.5471L94.5 24.2361Z" stroke="#0E0E0E" stroke-width="2"/>
</svg>
